<?xml version="1.0" standalone="no"?>
<!DOCTYPE svg PUBLIC "-//W3C//DTD SVG 20010904//EN"
 "http://www.w3.org/TR/2001/REC-SVG-20010904/DTD/svg10.dtd">
<svg version="1.0" xmlns="http://www.w3.org/2000/svg"
 width="470.000000pt" height="470.000000pt" viewBox="0 0 470.000000 470.000000"
 preserveAspectRatio="xMidYMid meet">
<metadata>
Created by potrace 1.16, written by Peter Selinger 2001-2019
</metadata>
<g transform="translate(0.000000,470.000000) scale(0.100000,-0.100000)"
fill="#000000" stroke="none">
<path d="M2118 3023 l-3 -78 -77 -3 -78 -3 0 -49 0 -50 63 -1 c34 -1 69 -2 77
-3 12 -1 16 -18 18 -79 l3 -78 52 3 52 3 2 55 c1 30 2 65 2 78 1 21 5 22 76
22 l75 0 0 50 0 49 -77 3 -77 3 0 75 -1 75 -52 3 -52 3 -3 -78z"/>
<path d="M217 1803 c-4 -3 -7 -17 -7 -29 0 -18 6 -23 33 -26 l32 -3 5 -328 c5
-311 6 -329 24 -343 15 -11 60 -14 196 -14 213 0 220 3 220 86 l0 55 -32 -3
c-25 -2 -32 -7 -30 -20 2 -10 -2 -27 -8 -38 -10 -18 -21 -20 -143 -20 -90 0
-137 4 -145 12 -9 9 -12 96 -12 329 0 361 3 349 -79 349 -26 0 -51 -3 -54 -7z"/>
<path d="M1309 1805 c-8 -36 -1 -50 26 -55 l30 -5 5 -340 5 -340 34 -3 33 -3
-4 40 c-2 23 -1 41 1 41 3 0 21 -15 41 -34 114 -108 302 -53 356 105 35 103
17 238 -42 316 -76 100 -260 103 -333 6 l-20 -28 -1 130 c0 161 -7 175 -81
175 -27 0 -49 -2 -50 -5z m392 -288 c120 -81 113 -316 -12 -387 -43 -23 -108
-26 -147 -6 -68 36 -102 103 -102 206 0 134 62 210 171 210 42 0 65 -6 90 -23z"/>
<path d="M1800 1785 c0 -15 11 -36 24 -48 16 -14 43 -73 75 -162 28 -77 82
-223 120 -325 l70 -185 38 -3 38 -3 124 333 c68 183 128 339 134 346 6 8 38
12 93 12 l84 0 -2 -312 -3 -313 -32 -3 c-29 -3 -33 -7 -33 -33 l0 -29 105 0
105 0 0 30 c0 28 -3 30 -35 30 l-35 0 0 315 0 315 35 0 c32 0 35 2 35 31 l0
30 -181 -3 c-157 -3 -182 -5 -193 -20 -7 -10 -32 -70 -56 -135 -24 -65 -72
-196 -106 -291 -35 -95 -64 -182 -64 -192 0 -46 -18 -12 -62 113 -105 304
-179 493 -199 510 -12 9 -34 17 -50 17 -24 0 -29 -4 -29 -25z"/>
<path d="M2810 1780 c0 -28 3 -30 35 -30 l35 0 0 -325 c0 -315 1 -326 21 -346
19 -19 29 -20 215 -17 221 3 214 0 214 86 0 51 0 52 -30 52 -26 0 -30 -3 -30
-29 0 -48 -15 -52 -171 -49 l-144 3 -3 143 -3 142 141 0 140 0 0 30 0 30 -140
0 -141 0 3 138 3 137 129 3 c141 3 156 -2 156 -49 0 -26 4 -29 30 -29 30 0 30
1 30 54 0 88 5 86 -261 86 l-229 0 0 -30z"/>
<path d="M3368 1804 c-18 -17 -7 -50 20 -60 26 -10 30 -22 110 -335 46 -178
85 -330 87 -337 3 -9 19 -12 47 -10 l43 3 63 215 c34 118 73 255 86 305 22 84
46 123 46 76 0 -22 4 -38 80 -321 23 -85 49 -183 58 -217 l15 -63 42 0 42 0
21 78 c11 42 48 183 82 312 79 301 73 283 98 295 15 7 22 19 22 39 0 28 -1 28
-41 23 -23 -3 -48 -11 -55 -19 -7 -7 -48 -151 -90 -320 -69 -275 -94 -352 -94
-287 0 12 -11 62 -24 112 -84 317 -100 379 -115 437 -17 64 -18 65 -53 68 -34
3 -37 1 -46 -30 -45 -159 -165 -586 -169 -598 -4 -13 -5 -13 -12 0 -5 8 -41
146 -81 307 -40 161 -78 299 -84 308 -13 18 -86 32 -98 19z"/>
<path d="M940 1599 c-67 -13 -94 -38 -98 -87 -3 -41 -2 -42 27 -42 27 0 31 4
31 26 0 67 193 72 229 5 6 -11 14 -40 17 -63 l6 -44 -106 -11 c-170 -18 -244
-65 -254 -163 -9 -97 67 -170 180 -170 54 0 104 23 144 67 l34 37 0 -31 c0
-41 31 -63 87 -63 41 0 43 1 43 30 0 26 -3 30 -29 30 l-29 0 -4 178 c-3 156
-5 182 -24 217 -37 71 -145 107 -254 84z m204 -310 c-3 -84 -54 -154 -130
-179 -29 -10 -43 -9 -79 4 -50 19 -75 52 -75 96 0 70 54 109 170 120 117 12
115 12 114 -41z"/>
</g>
</svg>
