<?xml version="1.0" standalone="no"?>
<!DOCTYPE svg PUBLIC "-//W3C//DTD SVG 20010904//EN"
 "http://www.w3.org/TR/2001/REC-SVG-20010904/DTD/svg10.dtd">
<svg version="1.0" xmlns="http://www.w3.org/2000/svg"
 width="500.000000pt" height="290.000000pt" viewBox="0 0 500.000000 290.000000"
 preserveAspectRatio="xMidYMid meet">
<metadata>
Created by potrace 1.16, written by Peter Selinger 2001-2019
</metadata>
<g transform="translate(0.000000,290.000000) scale(0.100000,-0.100000)"
fill="#000000" stroke="none">
<path d="M2263 2355 c-78 -21 -124 -48 -193 -112 -104 -96 -163 -196 -229
-385 -60 -176 -135 -309 -229 -410 -53 -57 -145 -123 -200 -143 -32 -12 43
-14 553 -14 l591 -1 37 69 37 69 -152 4 c-141 3 -158 6 -211 31 -82 38 -128
77 -161 137 -54 100 -46 210 29 405 55 142 107 246 156 313 22 28 36 52 32 51
-4 0 -32 -7 -60 -14z"/>
<path d="M2398 2301 c-21 -38 -38 -72 -38 -75 0 -3 60 -6 134 -6 105 0 147 -4
197 -20 176 -54 259 -206 215 -392 -32 -137 -148 -397 -213 -475 -29 -37 -31
-43 -15 -43 41 0 123 32 182 72 120 80 215 225 291 444 22 64 52 140 66 168
80 160 214 304 335 361 l73 34 -595 1 -595 0 -37 -69z"/>
<path d="M1740 786 c0 -164 1 -175 23 -207 39 -58 168 -82 175 -33 3 19 -3 22
-49 26 -41 4 -58 11 -76 32 -22 26 -23 34 -23 192 l0 164 -25 0 -25 0 0 -174z"/>
<path d="M1900 936 c0 -23 4 -25 53 -28 l52 -3 3 -192 2 -193 25 0 25 0 0 195
0 195 55 0 c52 0 55 1 55 25 l0 25 -135 0 -135 0 0 -24z"/>
<path d="M2168 760 c-49 -38 -32 -93 35 -110 84 -22 98 -31 95 -59 -3 -23 -8
-26 -50 -29 -38 -2 -51 1 -65 17 -19 22 -43 28 -43 10 0 -47 72 -77 140 -59
42 11 60 33 60 73 0 33 -25 52 -93 71 -32 9 -60 23 -64 32 -15 41 75 63 99 24
14 -22 48 -27 48 -7 0 32 -27 50 -81 55 -45 3 -59 0 -81 -18z"/>
<path d="M2386 772 c-4 -6 -1 -272 3 -329 1 -7 8 -13 16 -13 12 0 15 14 15 64
l0 64 38 -19 c121 -62 221 113 122 213 -23 22 -37 28 -72 28 -24 0 -54 -7 -66
-16 -20 -14 -22 -14 -22 0 0 17 -25 22 -34 8z m149 -28 c22 -9 45 -57 45 -97
0 -51 -33 -87 -79 -87 -44 0 -68 21 -77 68 -17 82 41 142 111 116z"/>
<path d="M2798 763 c-35 -22 -48 -53 -48 -116 0 -62 18 -93 67 -113 62 -26
129 3 148 64 5 18 2 22 -14 22 -12 0 -21 -6 -21 -13 0 -44 -84 -63 -120 -27
-28 28 -28 108 1 144 28 36 82 36 105 1 16 -25 54 -35 54 -14 0 6 -13 24 -29
40 -24 23 -38 29 -73 29 -24 0 -55 -8 -70 -17z"/>
<path d="M3048 751 c-27 -24 -32 -36 -35 -87 -3 -46 0 -66 16 -91 41 -65 159
-63 190 3 8 19 8 24 -4 24 -8 0 -24 -9 -35 -20 -41 -41 -130 -14 -130 40 0 18
8 20 93 22 l92 3 -4 30 c-4 40 -27 82 -50 95 -39 20 -98 12 -133 -19z"/>
</g>
</svg>
