<?xml version="1.0" standalone="no"?>
<!DOCTYPE svg PUBLIC "-//W3C//DTD SVG 20010904//EN"
 "http://www.w3.org/TR/2001/REC-SVG-20010904/DTD/svg10.dtd">
<svg version="1.0" xmlns="http://www.w3.org/2000/svg"
 width="600.000000pt" height="594.000000pt" viewBox="0 0 600.000000 594.000000"
 preserveAspectRatio="xMidYMid meet">
<metadata>
Created by potrace 1.16, written by Peter Selinger 2001-2019
</metadata>
<g transform="translate(0.000000,594.000000) scale(0.100000,-0.100000)"
fill="#000000" stroke="none">
<path d="M745 5551 c-220 -64 -372 -235 -420 -471 l-11 -55 -44 -5 c-43 -5
-43 -6 25 -13 88 -9 447 -9 995 0 361 5 417 8 379 19 -76 21 -89 26 -89 34 0
5 -13 11 -30 15 -23 5 -34 17 -55 63 -40 85 -91 245 -112 345 l-18 87 -280 -1
c-236 0 -290 -3 -340 -18z"/>
<path d="M4516 5558 c-2 -7 -11 -51 -21 -97 -69 -346 -291 -697 -580 -920 -16
-13 -16 -11 3 10 27 31 29 49 3 25 -10 -9 -24 -16 -32 -14 -7 2 -13 -2 -14 -9
0 -6 -3 -14 -7 -18 -18 -19 1 28 21 49 15 15 19 26 12 31 -6 3 -8 12 -4 18 13
21 15 41 14 123 -1 93 -21 151 -70 205 l-32 34 12 -33 c6 -18 9 -63 7 -101 -7
-134 -96 -222 -229 -229 -59 -4 -77 0 -124 23 -30 14 -66 41 -79 58 l-25 32
-1570 4 -1571 3 0 -781 0 -781 180 0 180 0 0 455 0 455 1136 0 1136 0 42 43
c97 100 253 101 351 2 98 -98 98 -252 0 -350 -100 -100 -255 -97 -356 7 l-37
38 -1006 0 -1006 0 0 -325 0 -325 1256 0 1256 0 53 48 c102 93 231 97 330 10
64 -57 88 -113 83 -197 -3 -54 -10 -78 -34 -117 -81 -132 -274 -154 -384 -44
l-38 38 -1571 6 -1571 6 0 -325 0 -325 658 0 658 0 35 36 c48 51 102 74 175
74 102 0 175 -43 219 -131 31 -61 34 -154 6 -214 -24 -54 -100 -119 -156 -135
-90 -25 -206 11 -257 80 l-22 30 -658 0 -658 0 0 -325 0 -325 781 0 781 0 43
44 c153 158 419 47 419 -174 0 -75 -22 -126 -76 -176 -53 -51 -95 -68 -168
-68 -75 0 -126 22 -179 78 l-35 36 -783 0 -783 0 0 -93 c0 -104 16 -176 58
-269 81 -177 257 -323 448 -372 55 -14 185 -16 1088 -16 l1026 0 0 45 0 44
-1032 3 -1033 3 -67 26 c-152 59 -261 154 -331 287 -36 67 -66 175 -67 232 l0
25 138 -7 c75 -4 178 -12 227 -17 50 -6 140 -13 200 -16 134 -7 345 -31 440
-50 39 -7 97 -19 130 -25 33 -6 139 -31 235 -55 295 -74 599 -123 899 -145
100 -7 152 -15 172 -27 30 -18 53 -68 69 -152 6 -30 12 -57 15 -59 3 -3 5 324
5 726 l0 731 -44 45 c-101 101 -97 262 10 356 52 45 93 60 164 60 141 0 243
-103 243 -245 0 -76 -22 -128 -76 -180 l-42 -40 3 -783 3 -782 324 0 325 0 0
45 0 45 -290 0 c-159 0 -290 3 -290 8 0 4 7 39 16 77 22 97 48 150 82 164 15
6 99 18 187 27 88 8 162 17 166 19 3 2 20 -5 37 -15 35 -21 59 -71 70 -140 13
-82 20 108 21 548 l1 412 -39 35 c-122 111 -103 307 39 392 47 29 63 33 125
33 62 0 78 -4 125 -32 139 -84 162 -264 48 -382 l-49 -51 3 -465 c2 -256 2
-522 1 -592 l-2 -128 325 0 324 0 0 45 0 45 -295 0 -295 0 0 30 c0 30 5 53 46
234 22 97 55 135 136 155 29 8 105 29 168 48 148 45 145 45 166 23 36 -36 41
-46 48 -94 4 -27 11 -56 14 -65 4 -9 9 288 12 659 l5 675 -32 28 c-99 87 -117
238 -39 340 109 143 334 123 419 -38 32 -62 30 -166 -6 -227 -15 -26 -42 -59
-59 -75 l-33 -28 3 -877 2 -878 93 0 c113 0 186 17 297 72 69 33 101 57 170
127 98 99 149 187 180 307 19 75 20 116 20 1266 l0 1188 -515 0 -516 0 -31
-36 c-89 -101 -242 -111 -345 -21 -59 53 -82 104 -83 185 0 76 26 138 78 183
50 44 95 60 167 60 74 0 131 -24 185 -80 l35 -36 513 3 512 3 0 319 0 320 -47
1 c-27 1 -281 2 -566 2 -448 2 -519 4 -527 17 -5 8 -10 10 -10 4 0 -22 -71
-92 -115 -113 -57 -27 -153 -28 -210 -2 -47 21 -99 70 -121 113 -23 44 -29
129 -13 185 17 62 97 147 154 162 103 28 217 -3 271 -75 l26 -34 579 0 579 0
0 205 0 205 -44 0 -43 0 -6 103 c-9 168 -60 282 -176 398 -82 82 -160 127
-266 154 -79 20 -624 22 -629 3z m-1217 -914 c29 -8 82 -33 117 -55 35 -21 68
-39 73 -39 5 0 11 -3 13 -7 2 -5 28 -18 58 -30 41 -17 78 -23 148 -25 57 -1
86 -5 77 -11 -8 -4 -19 -6 -23 -3 -5 3 -9 -1 -9 -10 0 -10 7 -12 21 -9 45 13
-18 -26 -139 -85 -136 -66 -322 -127 -351 -116 -33 14 -289 3 -329 -14 -67
-27 -131 -31 -235 -16 -248 38 -453 117 -665 255 -51 33 -64 47 -51 49 15 3
16 6 5 13 -12 7 -12 9 1 9 13 0 13 1 0 10 -13 8 -13 10 1 10 9 0 22 6 28 13
15 19 179 44 371 58 91 6 170 12 175 14 6 2 157 4 336 4 268 1 335 -2 378 -15z
m2289 -3484 c-5 -248 -13 -290 -81 -410 -41 -74 -148 -178 -224 -218 -74 -39
-197 -72 -270 -72 l-53 0 0 76 c0 42 5 118 11 168 34 294 60 405 107 455 15
15 97 64 182 108 85 44 193 103 240 131 l85 50 3 -31 c2 -18 2 -133 0 -257z"/>
</g>
</svg>
