<?xml version="1.0" standalone="no"?>
<!DOCTYPE svg PUBLIC "-//W3C//DTD SVG 20010904//EN"
 "http://www.w3.org/TR/2001/REC-SVG-20010904/DTD/svg10.dtd">
<svg version="1.0" xmlns="http://www.w3.org/2000/svg"
 width="400.000000pt" height="300.000000pt" viewBox="0 0 400.000000 300.000000"
 preserveAspectRatio="xMidYMid meet">
<metadata>
Created by potrace 1.16, written by Peter Selinger 2001-2019
</metadata>
<g transform="translate(0.000000,300.000000) scale(0.100000,-0.100000)"
fill="#000000" stroke="none">
<path d="M1140 2778 l0 -118 40 0 40 0 0 45 0 44 68 3 67 3 0 65 0 65 -108 5
-107 5 0 -117z"/>
<path d="M1400 2778 l0 -118 40 0 40 0 0 56 c0 47 3 55 17 52 10 -2 26 -25 38
-56 20 -52 20 -52 63 -52 24 0 41 4 38 8 -2 4 -14 31 -25 59 -18 46 -18 50 -3
49 19 -1 28 48 18 90 -6 22 -11 23 -116 26 l-110 3 0 -117z"/>
<path d="M2183 2778 l-2 -118 95 0 c77 0 94 3 94 15 0 12 -13 15 -56 15 l-55
0 3 38 3 37 48 -2 c41 -1 47 1 47 19 0 19 -4 20 -50 14 l-50 -7 0 36 0 35 55
0 c41 0 55 4 55 14 0 11 -20 15 -92 18 l-93 3 -2 -117z"/>
<path d="M2620 2891 c-12 -5 -15 -26 -15 -101 l0 -95 -60 0 -60 0 0 98 0 97
-40 0 -40 0 3 -104 c2 -72 7 -108 17 -116 8 -7 47 -10 101 -8 85 3 89 4 102
30 8 18 12 58 10 116 -3 75 -5 88 -18 83z"/>
<path d="M1685 2873 c-11 -27 -6 -185 7 -200 16 -20 182 -18 202 3 18 18 23
146 6 188 -9 26 -11 26 -109 26 -85 0 -100 -2 -106 -17z"/>
<path d="M1940 2875 c0 -11 11 -15 36 -15 l36 0 -4 -100 -3 -100 42 0 42 0 -2
100 -2 100 37 0 c29 0 36 3 32 15 -5 12 -27 15 -110 15 -86 0 -104 -3 -104
-15z"/>
<path d="M2685 2867 c-4 -13 -5 -46 -3 -73 l3 -49 63 -3 c59 -3 62 -4 62 -28
0 -25 -1 -26 -64 -22 -56 3 -64 1 -63 -14 1 -16 13 -18 94 -18 81 0 94 2 103
19 14 28 13 118 -2 128 -7 4 -38 10 -68 13 -42 4 -56 9 -58 23 -3 15 5 17 62
17 52 0 66 3 66 15 0 12 -17 15 -95 15 -91 0 -95 -1 -100 -23z"/>
<path d="M1840 2176 c-25 -7 -45 -17 -45 -23 0 -11 99 -96 152 -130 27 -18 21
-21 137 75 42 34 81 62 88 63 7 1 -5 7 -27 14 -50 17 -244 17 -305 1z"/>
<path d="M2215 2085 c-127 -108 -157 -141 -150 -164 10 -34 71 -58 165 -65 94
-8 356 -41 408 -52 29 -6 32 -4 26 12 -25 69 -166 211 -269 271 -106 62 -104
62 -180 -2z"/>
<path d="M1581 2079 c-35 -23 -77 -56 -95 -73 -17 -17 -27 -28 -22 -24 6 5 26
-9 46 -31 20 -21 47 -42 60 -46 14 -4 31 -12 38 -17 6 -6 56 -11 110 -12 87
-1 101 2 130 22 17 13 32 29 32 36 0 8 -19 29 -42 47 -23 19 -46 39 -52 44
-47 43 -116 95 -127 95 -8 0 -43 -19 -78 -41z"/>
<path d="M1923 1743 c-13 -2 -23 -6 -23 -7 0 -2 16 -30 35 -62 20 -33 43 -80
53 -106 10 -28 25 -51 39 -57 12 -6 30 -25 39 -43 22 -43 53 -79 126 -142 54
-48 68 -45 152 34 55 52 73 76 69 90 -6 23 -239 252 -285 280 -26 16 -49 20
-108 19 -41 -1 -85 -4 -97 -6z"/>
<path d="M2260 1739 c0 -21 202 -219 224 -219 15 0 137 118 158 154 15 25 -12
38 -108 51 -180 25 -274 29 -274 14z"/>
<path d="M2642 1544 c-45 -53 -82 -102 -82 -110 0 -14 160 -194 173 -194 20 0
31 65 31 195 1 98 -3 150 -13 173 -7 17 -17 32 -20 32 -4 0 -44 -43 -89 -96z"/>
<path d="M2444 1318 c-41 -43 -84 -101 -84 -112 0 -8 184 -8 233 0 20 4 37 12
37 18 -1 17 -116 136 -132 136 -8 0 -32 -19 -54 -42z"/>
<path d="M1424 1300 c-28 -11 -67 -61 -56 -72 4 -4 54 -13 111 -18 58 -6 107
-11 110 -12 39 -4 40 16 4 35 -90 47 -147 77 -147 76 -1 0 -11 -4 -22 -9z"/>
<path d="M1290 1114 c0 -9 10 -33 22 -53 74 -122 185 -230 300 -291 65 -35 77
-34 129 13 13 12 59 53 102 91 42 38 77 75 77 83 0 14 -40 52 -89 85 -14 9
-50 20 -81 23 -177 19 -323 39 -383 51 -83 17 -77 17 -77 -2z"/>
<path d="M2570 1086 c-72 -18 -85 -25 -88 -44 -2 -12 2 -22 9 -22 7 0 10 -3 6
-6 -3 -4 0 -21 7 -38 11 -27 11 -33 -5 -50 -10 -10 -16 -22 -14 -26 3 -4 -10
-10 -28 -13 -17 -2 -33 -1 -35 4 -2 5 -14 9 -26 9 -13 0 -31 9 -41 20 -10 11
-24 20 -30 20 -7 0 -19 9 -26 20 -8 11 -37 29 -65 39 -47 17 -55 17 -82 4 -17
-8 -38 -23 -47 -32 -14 -17 -11 -22 47 -79 105 -101 165 -143 192 -136 69 17
336 286 336 338 0 20 -5 19 -110 -8z"/>
<path d="M1954 859 c-55 -43 -112 -90 -142 -116 -13 -13 -29 -23 -33 -23 -5 0
-9 -4 -9 -8 0 -13 84 -31 172 -38 86 -7 206 7 259 29 l29 12 -98 81 c-55 45
-108 85 -119 88 -14 4 -32 -4 -59 -25z"/>
<path d="M3138 403 c-66 -4 -59 10 -62 -133 l-1 -65 84 2 c55 2 88 7 93 15 4
7 8 47 8 90 l0 76 -31 11 c-18 6 -32 10 -33 9 -1 -1 -27 -3 -58 -5z"/>
<path d="M759 378 c-16 -30 -6 -148 15 -163 9 -7 50 -11 103 -10 84 1 88 2 93
26 5 20 13 25 48 27 37 3 42 1 48 -22 5 -22 12 -26 45 -26 l39 0 -26 68 c-14
37 -30 79 -36 95 -8 23 -16 27 -46 27 -36 0 -38 -2 -61 -63 -39 -100 -42 -103
-103 -97 l-53 5 0 60 0 60 43 3 c28 2 42 8 42 18 0 11 -16 14 -70 14 -61 0
-71 -3 -81 -22z"/>
<path d="M1170 305 l0 -95 85 0 c99 0 105 5 105 95 0 90 -6 95 -105 95 l-85 0
0 -95z"/>
<path d="M1506 384 c-11 -28 -6 -150 6 -162 17 -17 134 -16 141 1 4 10 -7 13
-42 13 l-46 -1 -3 68 -3 67 46 0 c33 0 45 4 45 15 0 22 -135 22 -144 -1z"/>
<path d="M1692 388 c-12 -12 -17 -134 -6 -162 5 -13 22 -16 85 -16 92 0 99 6
99 95 0 87 -7 95 -93 95 -44 0 -78 -5 -85 -12z"/>
<path d="M1900 305 c0 -77 3 -95 15 -95 11 0 15 17 17 73 l3 72 34 -72 34 -73
43 0 44 0 0 95 c0 72 -3 95 -13 95 -10 0 -13 -17 -11 -65 2 -35 -1 -67 -5 -69
-4 -3 -23 26 -41 64 l-34 70 -43 0 -43 0 0 -95z"/>
<path d="M2128 305 c-2 -79 -1 -95 12 -95 12 0 14 13 12 70 -2 40 0 70 6 70 5
0 23 -31 41 -70 l31 -70 45 0 45 0 0 95 c0 77 -3 95 -15 95 -11 0 -15 -17 -17
-72 l-3 -73 -35 72 -35 73 -42 0 -42 0 -3 -95z"/>
<path d="M2350 305 l0 -95 80 0 c61 0 80 3 80 14 0 10 -11 12 -45 8 -45 -5
-45 -4 -45 27 0 30 2 31 40 31 29 0 40 4 40 15 0 11 -11 15 -40 15 -36 0 -40
3 -40 25 0 23 4 25 45 25 35 0 43 3 39 15 -5 11 -24 15 -80 15 l-74 0 0 -95z"/>
<path d="M2541 381 c-12 -21 -15 -129 -5 -155 8 -21 154 -24 154 -3 0 10 -13
13 -42 13 l-43 -1 -3 69 -3 68 46 -4 c36 -2 45 0 43 12 -2 11 -20 16 -70 18
-58 3 -68 0 -77 -17z"/>
<path d="M2700 385 c0 -9 9 -15 24 -15 22 0 24 -5 30 -63 4 -34 4 -70 0 -80
-5 -14 0 -17 30 -17 l36 0 0 80 0 80 30 0 c20 0 30 5 30 15 0 12 -17 15 -90
15 -73 0 -90 -3 -90 -15z"/>
<path d="M2897 309 c1 -50 4 -93 5 -94 2 -2 35 -6 74 -10 67 -7 71 -6 77 14 5
19 1 21 -44 21 -46 0 -49 2 -49 25 0 22 4 25 39 25 24 0 41 5 44 14 8 21 0 24
-45 19 -37 -6 -40 -4 -36 18 3 20 9 24 46 27 73 5 45 27 -39 30 l-74 3 2 -92z"/>
</g>
</svg>
